# xmcd
#
# Track frame offsets: 
#        150
#        16906
#        38083
#        57162
#        73138
#        103353
#        125857
#        150609
#        170638
#        191410
#
# Disc length: 2832 seconds
#
# Revision: 2
# Processed by: cddbd v1.5.2PL0 Copyright (c) Steve Scherf et al.
# Submitted via: ExactAudioCopy v0.99pb4
#
DISCID=8c0b0e0a
DTITLE=Various Artist - No.1 R&B Hits Volume 2 Disc 2
DYEAR=2003
DGENRE=R&B
TTITLE0=Jodeci - Cry For You
TTITLE1=Tony!Toni!Tone! - Oakland Stroke
TTITLE2=Zhane - Hey Mr D.J. [Original Mix Sample: Lookin' Up To You]
TTITLE3=Soul For Real - Candy Rain
TTITLE4=J.T. Taylor - Long Hot Summer Night
TTITLE5=Father MC - Lisa Baby [Album Version]
TTITLE6=Jeff Redd - I Found Lovin' [Radio Edit]
TTITLE7=Father MC - 69 [Original Album Mix]
TTITLE8=Today - I Got The Feeling [7" Mix]
TTITLE9=Jhonny Gill - Wrap My Body Tight
EXTD=
EXTT0=
EXTT1=
EXTT2=
EXTT3=
EXTT4=
EXTT5=
EXTT6=
EXTT7=
EXTT8=
EXTT9=
PLAYORDER=
